<mxfile host="app.diagrams.net" agent="Mozilla/5.0 (Macintosh; Intel Mac OS X 10_15_7) AppleWebKit/537.36 (KHTML, like Gecko) Chrome/131.0.0.0 Safari/537.36" version="25.0.3">
  <diagram name="Page-1" id="y1IOcdI-GKZUK5CzCeJA">
    <mxGraphModel dx="984" dy="589" grid="1" gridSize="10" guides="1" tooltips="1" connect="1" arrows="1" fold="1" page="1" pageScale="1" pageWidth="827" pageHeight="1169" math="0" shadow="0">
      <root>
        <mxCell id="0" />
        <mxCell id="1" parent="0" />
        <mxCell id="mW4uzgTQFoUeq0SN7-b9-1" value="" style="rounded=0;whiteSpace=wrap;html=1;" vertex="1" parent="1">
          <mxGeometry x="60" y="30" width="520" height="130" as="geometry" />
        </mxCell>
        <mxCell id="mW4uzgTQFoUeq0SN7-b9-15" value="" style="edgeStyle=orthogonalEdgeStyle;rounded=0;orthogonalLoop=1;jettySize=auto;html=1;" edge="1" parent="1" source="mW4uzgTQFoUeq0SN7-b9-3" target="mW4uzgTQFoUeq0SN7-b9-7">
          <mxGeometry relative="1" as="geometry" />
        </mxCell>
        <mxCell id="mW4uzgTQFoUeq0SN7-b9-3" value="&lt;h1 style=&quot;margin-top: 0px;&quot;&gt;User Interface (Streamlit)&lt;/h1&gt;&lt;p&gt;- Upload Documents (PDF, DOCX, TXT)&amp;nbsp;&lt;/p&gt;&lt;p&gt;&amp;nbsp;- Select Category (High/Medium Priority)&amp;nbsp;&lt;/p&gt;&lt;p&gt;- Input User Query&amp;nbsp;&lt;/p&gt;" style="text;html=1;whiteSpace=wrap;overflow=hidden;rounded=0;" vertex="1" parent="1">
          <mxGeometry x="90" y="35" width="470" height="120" as="geometry" />
        </mxCell>
        <mxCell id="mW4uzgTQFoUeq0SN7-b9-6" value="" style="rounded=1;whiteSpace=wrap;html=1;" vertex="1" parent="1">
          <mxGeometry x="40" y="200" width="560" height="130" as="geometry" />
        </mxCell>
        <mxCell id="mW4uzgTQFoUeq0SN7-b9-16" value="" style="edgeStyle=orthogonalEdgeStyle;rounded=0;orthogonalLoop=1;jettySize=auto;html=1;" edge="1" parent="1" source="mW4uzgTQFoUeq0SN7-b9-7" target="mW4uzgTQFoUeq0SN7-b9-9">
          <mxGeometry relative="1" as="geometry" />
        </mxCell>
        <mxCell id="mW4uzgTQFoUeq0SN7-b9-7" value="&lt;h1 style=&quot;margin-top: 0px;&quot;&gt;Document Processing &amp;amp; Categorization&lt;/h1&gt;&lt;div&gt;&amp;nbsp;- Document Loaders (PyPDFLoader, Docx2txtLoader, TextLoader)&lt;/div&gt;&lt;div&gt;- RecursiveCharacterTextSplitter&lt;/div&gt;&lt;div&gt;- OpenAIEmbeddings&lt;/div&gt;&lt;div&gt;- Chroma Vector Database (Document Storage)&amp;nbsp; &amp;nbsp;&amp;nbsp;&lt;/div&gt;" style="text;html=1;whiteSpace=wrap;overflow=hidden;rounded=0;" vertex="1" parent="1">
          <mxGeometry x="70" y="205" width="510" height="120" as="geometry" />
        </mxCell>
        <mxCell id="mW4uzgTQFoUeq0SN7-b9-8" value="" style="rounded=1;whiteSpace=wrap;html=1;" vertex="1" parent="1">
          <mxGeometry x="40" y="360" width="560" height="130" as="geometry" />
        </mxCell>
        <mxCell id="mW4uzgTQFoUeq0SN7-b9-21" value="" style="edgeStyle=orthogonalEdgeStyle;rounded=0;orthogonalLoop=1;jettySize=auto;html=1;" edge="1" parent="1" source="mW4uzgTQFoUeq0SN7-b9-9" target="mW4uzgTQFoUeq0SN7-b9-12">
          <mxGeometry relative="1" as="geometry" />
        </mxCell>
        <mxCell id="mW4uzgTQFoUeq0SN7-b9-9" value="&lt;h1 style=&quot;margin-top: 0px;&quot;&gt;Retrieval-Augmented Generation (RAG)&lt;/h1&gt;&lt;div&gt;&lt;span style=&quot;background-color: initial;&quot;&gt;- Query Chroma Vector Database (Category A &amp;amp; B)&lt;/span&gt;&lt;/div&gt;&lt;div&gt;&lt;span style=&quot;background-color: initial;&quot;&gt;- Retrieve Documents from Chroma&lt;/span&gt;&lt;/div&gt;&lt;div&gt;&lt;span style=&quot;background-color: initial;&quot;&gt;- Prioritize Category A over Category B&lt;/span&gt;&lt;/div&gt;&lt;div&gt;&lt;span style=&quot;background-color: initial;&quot;&gt;- Combine and Prepare Context for LLM&lt;/span&gt;&lt;span style=&quot;background-color: initial;&quot;&gt;&amp;nbsp; &amp;nbsp;&amp;nbsp;&lt;/span&gt;&lt;/div&gt;" style="text;html=1;whiteSpace=wrap;overflow=hidden;rounded=0;" vertex="1" parent="1">
          <mxGeometry x="70" y="365" width="510" height="120" as="geometry" />
        </mxCell>
        <mxCell id="mW4uzgTQFoUeq0SN7-b9-11" value="" style="rounded=1;whiteSpace=wrap;html=1;" vertex="1" parent="1">
          <mxGeometry x="40" y="520" width="560" height="130" as="geometry" />
        </mxCell>
        <mxCell id="mW4uzgTQFoUeq0SN7-b9-22" value="" style="edgeStyle=orthogonalEdgeStyle;rounded=0;orthogonalLoop=1;jettySize=auto;html=1;" edge="1" parent="1" source="mW4uzgTQFoUeq0SN7-b9-12" target="mW4uzgTQFoUeq0SN7-b9-14">
          <mxGeometry relative="1" as="geometry" />
        </mxCell>
        <mxCell id="mW4uzgTQFoUeq0SN7-b9-12" value="&lt;h1 style=&quot;margin-top: 0px;&quot;&gt;&amp;nbsp; OpenAI LLM (GPT-4) API&lt;/h1&gt;&lt;div&gt;&lt;span style=&quot;background-color: initial;&quot;&gt;- LLM Integration (Prompt with context from Chroma)&amp;nbsp;&lt;/span&gt;&lt;/div&gt;&lt;div&gt;&lt;span style=&quot;background-color: initial;&quot;&gt;- Generate Response based on Retrieved Documents&lt;/span&gt;&lt;span style=&quot;background-color: initial;&quot;&gt;&amp;nbsp; &amp;nbsp;&lt;/span&gt;&lt;/div&gt;" style="text;html=1;whiteSpace=wrap;overflow=hidden;rounded=0;" vertex="1" parent="1">
          <mxGeometry x="70" y="525" width="510" height="120" as="geometry" />
        </mxCell>
        <mxCell id="mW4uzgTQFoUeq0SN7-b9-13" value="" style="rounded=1;whiteSpace=wrap;html=1;" vertex="1" parent="1">
          <mxGeometry x="45" y="690" width="560" height="130" as="geometry" />
        </mxCell>
        <mxCell id="mW4uzgTQFoUeq0SN7-b9-14" value="&lt;h1 style=&quot;margin-top: 0px;&quot;&gt;&amp;nbsp;&amp;nbsp;&lt;span style=&quot;background-color: initial;&quot;&gt;&lt;font style=&quot;&quot;&gt;Display Response to User&lt;/font&gt;&lt;/span&gt;&lt;/h1&gt;&lt;div&gt;&lt;span style=&quot;background-color: initial;&quot;&gt;- Output Answer from LLM&lt;/span&gt;&lt;span style=&quot;background-color: initial;&quot;&gt;&amp;nbsp; &amp;nbsp;&lt;/span&gt;&lt;/div&gt;" style="text;html=1;whiteSpace=wrap;overflow=hidden;rounded=0;" vertex="1" parent="1">
          <mxGeometry x="70" y="695" width="510" height="120" as="geometry" />
        </mxCell>
        <mxCell id="mW4uzgTQFoUeq0SN7-b9-20" value="(uploads document, query input)" style="text;html=1;align=center;verticalAlign=middle;whiteSpace=wrap;rounded=0;" vertex="1" parent="1">
          <mxGeometry x="354" y="160" width="206" height="30" as="geometry" />
        </mxCell>
      </root>
    </mxGraphModel>
  </diagram>
</mxfile>
